<?xml version="1.0" encoding="UTF-8" standalone="no"?>
<svg width="641px" height="269px" viewBox="0 0 641 269" version="1.1" xmlns="http://www.w3.org/2000/svg" xmlns:xlink="http://www.w3.org/1999/xlink" xmlns:sketch="http://www.bohemiancoding.com/sketch/ns">
    <title>bg4</title>
    <description>Created with Sketch (http://www.bohemiancoding.com/sketch)</description>
    <defs></defs>
    <g id="Page-1" stroke="none" stroke-width="1" fill="none" fill-rule="evenodd" sketch:type="MSPage">
        <rect id="Rectangle-1" stroke="#979797" fill="#F8D66F" sketch:type="MSShapeGroup" x="-38" y="-150" width="718" height="517"></rect>
        <path d="M321,532 C496.074274,532 638,416.265615 638,273.5 C638,130.734385 496.074274,15 321,15 C145.925726,15 4,130.734385 4,273.5 C4,416.265615 145.925726,532 321,532 Z" id="Oval-1" fill="#F6B05B" sketch:type="MSShapeGroup"></path>
        <path d="M322.5,461 C449.249356,461 552,377.277253 552,274 C552,170.722747 449.249356,87 322.5,87 C195.750644,87 93,170.722747 93,274 C93,377.277253 195.750644,461 322.5,461 Z" id="Oval-1" fill="#F68E54" sketch:type="MSShapeGroup"></path>
        <path d="M322,396 C404.842717,396 472,341.154885 472,273.5 C472,205.845115 404.842717,151 322,151 C239.157283,151 172,205.845115 172,273.5 C172,341.154885 239.157283,396 322,396 Z" id="Oval-1" fill="#F54C4F" sketch:type="MSShapeGroup"></path>
    </g>
</svg>