<svg height="1000" width="2000" style="display: block;" version="1.1" xmlns="http://www.w3.org/2000/svg"><polygon style="fill:#e95346;stroke:#e95346;" points="2180.019775390625,946.8661804199219 2106.9967041015625,1114.735107421875 2265.1583251953125,1098.7622680664062" stroke-width="1" stroke-miterlimit="1" stroke-linejoin="round"/><polygon style="fill:#f65a4a;stroke:#f65a4a;" points="2031.341064453125,964.9848327636719 2106.9967041015625,1114.735107421875 2180.019775390625,946.8661804199219" stroke-width="1" stroke-miterlimit="1" stroke-linejoin="round"/><polygon style="fill:#db4c42;stroke:#db4c42;" points="2126.9451904296875,789.6205139160156 2031.341064453125,964.9848327636719 2180.019775390625,946.8661804199219" stroke-width="1" stroke-miterlimit="1" stroke-linejoin="round"/><polygon style="fill:#a63232;stroke:#a63232;" points="2077.93359375,792.32958984375 2031.341064453125,964.9848327636719 2126.9451904296875,789.6205139160156" stroke-width="1" stroke-miterlimit="1" stroke-linejoin="round"/><polygon style="fill:#bb3c38;stroke:#bb3c38;" points="2092.56787109375,658.6341705322266 2077.93359375,792.32958984375 2126.9451904296875,789.6205139160156" stroke-width="1" stroke-miterlimit="1" stroke-linejoin="round"/><polygon style="fill:#a63232;stroke:#a63232;" points="2169.57958984375,661.5347747802734 2077.93359375,792.32958984375 2092.56787109375,658.6341705322266" stroke-width="1" stroke-miterlimit="1" stroke-linejoin="round"/><polygon style="fill:#a63232;stroke:#a63232;" points="2251.1785888671875,507.4732232093811 2169.57958984375,661.5347747802734 2092.56787109375,658.6341705322266" stroke-width="1" stroke-miterlimit="1" stroke-linejoin="round"/><polygon style="fill:#fb5c4b;stroke:#fb5c4b;" points="2074.126708984375,487.69236183166504 2169.57958984375,661.5347747802734 2251.1785888671875,507.4732232093811" stroke-width="1" stroke-miterlimit="1" stroke-linejoin="round"/><polygon style="fill:#fd5d4c;stroke:#fd5d4c;" points="2179.633056640625,362.2641143798828 2074.126708984375,487.69236183166504 2251.1785888671875,507.4732232093811" stroke-width="1" stroke-miterlimit="1" stroke-linejoin="round"/><polygon style="fill:#df4e43;stroke:#df4e43;" points="1930.0055541992188,358.1138916015625 2074.126708984375,487.69236183166504 2179.633056640625,362.2641143798828" stroke-width="1" stroke-miterlimit="1" stroke-linejoin="round"/><polygon style="fill:#dd4d42;stroke:#dd4d42;" points="2162.4759521484375,214.98321533203125 1930.0055541992188,358.1138916015625 2179.633056640625,362.2641143798828" stroke-width="1" stroke-miterlimit="1" stroke-linejoin="round"/><polygon style="fill:#cb443d;stroke:#cb443d;" points="2105.7020263671875,185.16171264648438 1930.0055541992188,358.1138916015625 2162.4759521484375,214.98321533203125" stroke-width="1" stroke-miterlimit="1" stroke-linejoin="round"/><polygon style="fill:#a63232;stroke:#a63232;" points="2080.14208984375,64.5810546875 2105.7020263671875,185.16171264648438 2162.4759521484375,214.98321533203125" stroke-width="1" stroke-miterlimit="1" stroke-linejoin="round"/><polygon style="fill:#ff6752;stroke:#ff6752;" points="1995.53173828125,37.52362060546875 2105.7020263671875,185.16171264648438 2080.14208984375,64.5810546875" stroke-width="1" stroke-miterlimit="1" stroke-linejoin="round"/><polygon style="fill:#f05748;stroke:#f05748;" points="2290.3663330078125,-85.06109619140625 1995.53173828125,37.52362060546875 2080.14208984375,64.5810546875" stroke-width="1" stroke-miterlimit="1" stroke-linejoin="round"/><polygon style="fill:#e45144;stroke:#e45144;" points="2169.7779541015625,-90.95513916015625 1995.53173828125,37.52362060546875 2290.3663330078125,-85.06109619140625" stroke-width="1" stroke-miterlimit="1" stroke-linejoin="round"/><polygon style="fill:#ff6d55;stroke:#ff6d55;" points="2031.341064453125,964.9848327636719 2019.0183715820312,1089.8788452148438 2106.9967041015625,1114.735107421875" stroke-width="1" stroke-miterlimit="1" stroke-linejoin="round"/><polygon style="fill:#cb443d;stroke:#cb443d;" points="1870.3775634765625,963.9051208496094 2019.0183715820312,1089.8788452148438 2031.341064453125,964.9848327636719" stroke-width="1" stroke-miterlimit="1" stroke-linejoin="round"/><polygon style="fill:#c13f3a;stroke:#c13f3a;" points="2077.93359375,792.32958984375 1870.3775634765625,963.9051208496094 2031.341064453125,964.9848327636719" stroke-width="1" stroke-miterlimit="1" stroke-linejoin="round"/><polygon style="fill:#f45849;stroke:#f45849;" points="1934.0390014648438,786.3805236816406 1870.3775634765625,963.9051208496094 2077.93359375,792.32958984375" stroke-width="1" stroke-miterlimit="1" stroke-linejoin="round"/><polygon style="fill:#fd5d4c;stroke:#fd5d4c;" points="2169.57958984375,661.5347747802734 1934.0390014648438,786.3805236816406 2077.93359375,792.32958984375" stroke-width="1" stroke-miterlimit="1" stroke-linejoin="round"/><polygon style="fill:#d1473f;stroke:#d1473f;" points="1954.9088134765625,635.3194885253906 1934.0390014648438,786.3805236816406 2169.57958984375,661.5347747802734" stroke-width="1" stroke-miterlimit="1" stroke-linejoin="round"/><polygon style="fill:#d64a40;stroke:#d64a40;" points="2074.126708984375,487.69236183166504 1954.9088134765625,635.3194885253906 2169.57958984375,661.5347747802734" stroke-width="1" stroke-miterlimit="1" stroke-linejoin="round"/><polygon style="fill:#fa5b4b;stroke:#fa5b4b;" points="2011.52001953125,491.31431007385254 1954.9088134765625,635.3194885253906 2074.126708984375,487.69236183166504" stroke-width="1" stroke-miterlimit="1" stroke-linejoin="round"/><polygon style="fill:#ee5647;stroke:#ee5647;" points="1930.0055541992188,358.1138916015625 2011.52001953125,491.31431007385254 2074.126708984375,487.69236183166504" stroke-width="1" stroke-miterlimit="1" stroke-linejoin="round"/><polygon style="fill:#a63232;stroke:#a63232;" points="1995.1690063476562,351.30628967285156 2011.52001953125,491.31431007385254 1930.0055541992188,358.1138916015625" stroke-width="1" stroke-miterlimit="1" stroke-linejoin="round"/><polygon style="fill:#a63232;stroke:#a63232;" points="2105.7020263671875,185.16171264648438 1995.1690063476562,351.30628967285156 1930.0055541992188,358.1138916015625" stroke-width="1" stroke-miterlimit="1" stroke-linejoin="round"/><polygon style="fill:#fe5d4c;stroke:#fe5d4c;" points="2019.93408203125,207.574462890625 1995.1690063476562,351.30628967285156 2105.7020263671875,185.16171264648438" stroke-width="1" stroke-miterlimit="1" stroke-linejoin="round"/><polygon style="fill:#ff5e4c;stroke:#ff5e4c;" points="1995.53173828125,37.52362060546875 2019.93408203125,207.574462890625 2105.7020263671875,185.16171264648438" stroke-width="1" stroke-miterlimit="1" stroke-linejoin="round"/><polygon style="fill:#ff614e;stroke:#ff614e;" points="1908.2362060546875,42.810150146484375 2019.93408203125,207.574462890625 1995.53173828125,37.52362060546875" stroke-width="1" stroke-miterlimit="1" stroke-linejoin="round"/><polygon style="fill:#ff604d;stroke:#ff604d;" points="2169.7779541015625,-90.95513916015625 1908.2362060546875,42.810150146484375 1995.53173828125,37.52362060546875" stroke-width="1" stroke-miterlimit="1" stroke-linejoin="round"/><polygon style="fill:#ff5e4d;stroke:#ff5e4d;" points="1846.4282836914062,-102.00848388671875 1908.2362060546875,42.810150146484375 2169.7779541015625,-90.95513916015625" stroke-width="1" stroke-miterlimit="1" stroke-linejoin="round"/><polygon style="fill:#ce463e;stroke:#ce463e;" points="1870.3775634765625,963.9051208496094 1630.2415161132812,1113.9197998046875 2019.0183715820312,1089.8788452148438" stroke-width="1" stroke-miterlimit="1" stroke-linejoin="round"/><polygon style="fill:#fc5d4c;stroke:#fc5d4c;" points="1808.4324951171875,944.7029418945312 1630.2415161132812,1113.9197998046875 1870.3775634765625,963.9051208496094" stroke-width="1" stroke-miterlimit="1" stroke-linejoin="round"/><polygon style="fill:#ff604d;stroke:#ff604d;" points="1934.0390014648438,786.3805236816406 1808.4324951171875,944.7029418945312 1870.3775634765625,963.9051208496094" stroke-width="1" stroke-miterlimit="1" stroke-linejoin="round"/><polygon style="fill:#f95b4b;stroke:#f95b4b;" points="1649.55908203125,786.9223022460938 1808.4324951171875,944.7029418945312 1934.0390014648438,786.3805236816406" stroke-width="1" stroke-miterlimit="1" stroke-linejoin="round"/><polygon style="fill:#f45949;stroke:#f45949;" points="1954.9088134765625,635.3194885253906 1649.55908203125,786.9223022460938 1934.0390014648438,786.3805236816406" stroke-width="1" stroke-miterlimit="1" stroke-linejoin="round"/><polygon style="fill:#ff6e56;stroke:#ff6e56;" points="1675.9837036132812,650.8225555419922 1649.55908203125,786.9223022460938 1954.9088134765625,635.3194885253906" stroke-width="1" stroke-miterlimit="1" stroke-linejoin="round"/><polygon style="fill:#ff6d55;stroke:#ff6d55;" points="2011.52001953125,491.31431007385254 1675.9837036132812,650.8225555419922 1954.9088134765625,635.3194885253906" stroke-width="1" stroke-miterlimit="1" stroke-linejoin="round"/><polygon style="fill:#f05648;stroke:#f05648;" points="1818.206787109375,485.30016326904297 1675.9837036132812,650.8225555419922 2011.52001953125,491.31431007385254" stroke-width="1" stroke-miterlimit="1" stroke-linejoin="round"/><polygon style="fill:#e95346;stroke:#e95346;" points="1995.1690063476562,351.30628967285156 1818.206787109375,485.30016326904297 2011.52001953125,491.31431007385254" stroke-width="1" stroke-miterlimit="1" stroke-linejoin="round"/><polygon style="fill:#ff7259;stroke:#ff7259;" points="1869.9635620117188,354.7154541015625 1818.206787109375,485.30016326904297 1995.1690063476562,351.30628967285156" stroke-width="1" stroke-miterlimit="1" stroke-linejoin="round"/><polygon style="fill:#ff6d55;stroke:#ff6d55;" points="2019.93408203125,207.574462890625 1869.9635620117188,354.7154541015625 1995.1690063476562,351.30628967285156" stroke-width="1" stroke-miterlimit="1" stroke-linejoin="round"/><polygon style="fill:#ff6e56;stroke:#ff6e56;" points="1862.935791015625,186.434814453125 1869.9635620117188,354.7154541015625 2019.93408203125,207.574462890625" stroke-width="1" stroke-miterlimit="1" stroke-linejoin="round"/><polygon style="fill:#ff6a54;stroke:#ff6a54;" points="1908.2362060546875,42.810150146484375 1862.935791015625,186.434814453125 2019.93408203125,207.574462890625" stroke-width="1" stroke-miterlimit="1" stroke-linejoin="round"/><polygon style="fill:#fb5c4b;stroke:#fb5c4b;" points="1695.2607421875,49.443511962890625 1862.935791015625,186.434814453125 1908.2362060546875,42.810150146484375" stroke-width="1" stroke-miterlimit="1" stroke-linejoin="round"/><polygon style="fill:#ff604e;stroke:#ff604e;" points="1846.4282836914062,-102.00848388671875 1695.2607421875,49.443511962890625 1908.2362060546875,42.810150146484375" stroke-width="1" stroke-miterlimit="1" stroke-linejoin="round"/><polygon style="fill:#ff6e56;stroke:#ff6e56;" points="1649.22314453125,-85.29730224609375 1695.2607421875,49.443511962890625 1846.4282836914062,-102.00848388671875" stroke-width="1" stroke-miterlimit="1" stroke-linejoin="round"/><polygon style="fill:#ff624f;stroke:#ff624f;" points="1808.4324951171875,944.7029418945312 1565.64697265625,1085.33056640625 1630.2415161132812,1113.9197998046875" stroke-width="1" stroke-miterlimit="1" stroke-linejoin="round"/><polygon style="fill:#e14f43;stroke:#e14f43;" points="1543.8843383789062,963.043212890625 1565.64697265625,1085.33056640625 1808.4324951171875,944.7029418945312" stroke-width="1" stroke-miterlimit="1" stroke-linejoin="round"/><polygon style="fill:#ff5e4d;stroke:#ff5e4d;" points="1649.55908203125,786.9223022460938 1543.8843383789062,963.043212890625 1808.4324951171875,944.7029418945312" stroke-width="1" stroke-miterlimit="1" stroke-linejoin="round"/><polygon style="fill:#ffffbc;stroke:#ffffbc;" points="1633.568359375,814.455810546875 1543.8843383789062,963.043212890625 1649.55908203125,786.9223022460938" stroke-width="1" stroke-miterlimit="1" stroke-linejoin="round"/><polygon style="fill:#ffefa4;stroke:#ffefa4;" points="1675.9837036132812,650.8225555419922 1633.568359375,814.455810546875 1649.55908203125,786.9223022460938" stroke-width="1" stroke-miterlimit="1" stroke-linejoin="round"/><polygon style="fill:#ff6e56;stroke:#ff6e56;" points="1483.5546264648438,660.2466430664062 1633.568359375,814.455810546875 1675.9837036132812,650.8225555419922" stroke-width="1" stroke-miterlimit="1" stroke-linejoin="round"/><polygon style="fill:#ff6e56;stroke:#ff6e56;" points="1818.206787109375,485.30016326904297 1483.5546264648438,660.2466430664062 1675.9837036132812,650.8225555419922" stroke-width="1" stroke-miterlimit="1" stroke-linejoin="round"/><polygon style="fill:#ff6e56;stroke:#ff6e56;" points="1622.119140625,512.2633686065674 1483.5546264648438,660.2466430664062 1818.206787109375,485.30016326904297" stroke-width="1" stroke-miterlimit="1" stroke-linejoin="round"/><polygon style="fill:#ff6f57;stroke:#ff6f57;" points="1869.9635620117188,354.7154541015625 1622.119140625,512.2633686065674 1818.206787109375,485.30016326904297" stroke-width="1" stroke-miterlimit="1" stroke-linejoin="round"/><polygon style="fill:#ff6f57;stroke:#ff6f57;" points="1514.4754638671875,360.2393341064453 1622.119140625,512.2633686065674 1869.9635620117188,354.7154541015625" stroke-width="1" stroke-miterlimit="1" stroke-linejoin="round"/><polygon style="fill:#ff6853;stroke:#ff6853;" points="1862.935791015625,186.434814453125 1514.4754638671875,360.2393341064453 1869.9635620117188,354.7154541015625" stroke-width="1" stroke-miterlimit="1" stroke-linejoin="round"/><polygon style="fill:#ff6b54;stroke:#ff6b54;" points="1634.7058715820312,205.62542724609375 1514.4754638671875,360.2393341064453 1862.935791015625,186.434814453125" stroke-width="1" stroke-miterlimit="1" stroke-linejoin="round"/><polygon style="fill:#ff6450;stroke:#ff6450;" points="1695.2607421875,49.443511962890625 1634.7058715820312,205.62542724609375 1862.935791015625,186.434814453125" stroke-width="1" stroke-miterlimit="1" stroke-linejoin="round"/><polygon style="fill:#ff7359;stroke:#ff7359;" points="1495.3609008789062,54.70819091796875 1634.7058715820312,205.62542724609375 1695.2607421875,49.443511962890625" stroke-width="1" stroke-miterlimit="1" stroke-linejoin="round"/><polygon style="fill:#ff6a53;stroke:#ff6a53;" points="1649.22314453125,-85.29730224609375 1495.3609008789062,54.70819091796875 1695.2607421875,49.443511962890625" stroke-width="1" stroke-miterlimit="1" stroke-linejoin="round"/><polygon style="fill:#ff6a54;stroke:#ff6a54;" points="1496.4140930175781,-85.10638427734375 1495.3609008789062,54.70819091796875 1649.22314453125,-85.29730224609375" stroke-width="1" stroke-miterlimit="1" stroke-linejoin="round"/><polygon style="fill:#d54940;stroke:#d54940;" points="1543.8843383789062,963.043212890625 1392.2961730957031,1101.8778686523438 1565.64697265625,1085.33056640625" stroke-width="1" stroke-miterlimit="1" stroke-linejoin="round"/><polygon style="fill:#ff604e;stroke:#ff604e;" points="1459.4175415039062,935.0867004394531 1392.2961730957031,1101.8778686523438 1543.8843383789062,963.043212890625" stroke-width="1" stroke-miterlimit="1" stroke-linejoin="round"/><polygon style="fill:#ff6752;stroke:#ff6752;" points="1633.568359375,814.455810546875 1459.4175415039062,935.0867004394531 1543.8843383789062,963.043212890625" stroke-width="1" stroke-miterlimit="1" stroke-linejoin="round"/><polygon style="fill:#d94b41;stroke:#d94b41;" points="1534.4103393554688,813.8336791992188 1459.4175415039062,935.0867004394531 1633.568359375,814.455810546875" stroke-width="1" stroke-miterlimit="1" stroke-linejoin="round"/><polygon style="fill:#ff6b54;stroke:#ff6b54;" points="1483.5546264648438,660.2466430664062 1534.4103393554688,813.8336791992188 1633.568359375,814.455810546875" stroke-width="1" stroke-miterlimit="1" stroke-linejoin="round"/><polygon style="fill:#ff8463;stroke:#ff8463;" points="1363.3626708984375,644.9384765625 1534.4103393554688,813.8336791992188 1483.5546264648438,660.2466430664062" stroke-width="1" stroke-miterlimit="1" stroke-linejoin="round"/><polygon style="fill:#ff8162;stroke:#ff8162;" points="1622.119140625,512.2633686065674 1363.3626708984375,644.9384765625 1483.5546264648438,660.2466430664062" stroke-width="1" stroke-miterlimit="1" stroke-linejoin="round"/><polygon style="fill:#ff6d55;stroke:#ff6d55;" points="1488.7138977050781,492.4040894508362 1363.3626708984375,644.9384765625 1622.119140625,512.2633686065674" stroke-width="1" stroke-miterlimit="1" stroke-linejoin="round"/><polygon style="fill:#ff755a;stroke:#ff755a;" points="1514.4754638671875,360.2393341064453 1488.7138977050781,492.4040894508362 1622.119140625,512.2633686065674" stroke-width="1" stroke-miterlimit="1" stroke-linejoin="round"/><polygon style="fill:#ff976f;stroke:#ff976f;" points="1348.1591186523438,349.94544982910156 1488.7138977050781,492.4040894508362 1514.4754638671875,360.2393341064453" stroke-width="1" stroke-miterlimit="1" stroke-linejoin="round"/><polygon style="fill:#ff8e69;stroke:#ff8e69;" points="1634.7058715820312,205.62542724609375 1348.1591186523438,349.94544982910156 1514.4754638671875,360.2393341064453" stroke-width="1" stroke-miterlimit="1" stroke-linejoin="round"/><polygon style="fill:#ff8161;stroke:#ff8161;" points="1524.1121215820312,186.54281616210938 1348.1591186523438,349.94544982910156 1634.7058715820312,205.62542724609375" stroke-width="1" stroke-miterlimit="1" stroke-linejoin="round"/><polygon style="fill:#ff6550;stroke:#ff6550;" points="1495.3609008789062,54.70819091796875 1524.1121215820312,186.54281616210938 1634.7058715820312,205.62542724609375" stroke-width="1" stroke-miterlimit="1" stroke-linejoin="round"/><polygon style="fill:#ff7359;stroke:#ff7359;" points="1384.3431396484375,49.697540283203125 1524.1121215820312,186.54281616210938 1495.3609008789062,54.70819091796875" stroke-width="1" stroke-miterlimit="1" stroke-linejoin="round"/><polygon style="fill:#ff775c;stroke:#ff775c;" points="1496.4140930175781,-85.10638427734375 1384.3431396484375,49.697540283203125 1495.3609008789062,54.70819091796875" stroke-width="1" stroke-miterlimit="1" stroke-linejoin="round"/><polygon style="fill:#ff765b;stroke:#ff765b;" points="1386.0497436523438,-111.9326171875 1384.3431396484375,49.697540283203125 1496.4140930175781,-85.10638427734375" stroke-width="1" stroke-miterlimit="1" stroke-linejoin="round"/><polygon style="fill:#ff6a53;stroke:#ff6a53;" points="1459.4175415039062,935.0867004394531 1372.0608520507812,1114.8193359375 1392.2961730957031,1101.8778686523438" stroke-width="1" stroke-miterlimit="1" stroke-linejoin="round"/><polygon style="fill:#ff624f;stroke:#ff624f;" points="1218.2324523925781,959.6744689941406 1372.0608520507812,1114.8193359375 1459.4175415039062,935.0867004394531" stroke-width="1" stroke-miterlimit="1" stroke-linejoin="round"/><polygon style="fill:#ff624f;stroke:#ff624f;" points="1534.4103393554688,813.8336791992188 1218.2324523925781,959.6744689941406 1459.4175415039062,935.0867004394531" stroke-width="1" stroke-miterlimit="1" stroke-linejoin="round"/><polygon style="fill:#ff8b67;stroke:#ff8b67;" points="1361.8545837402344,791.1039428710938 1218.2324523925781,959.6744689941406 1534.4103393554688,813.8336791992188" stroke-width="1" stroke-miterlimit="1" stroke-linejoin="round"/><polygon style="fill:#ff8262;stroke:#ff8262;" points="1363.3626708984375,644.9384765625 1361.8545837402344,791.1039428710938 1534.4103393554688,813.8336791992188" stroke-width="1" stroke-miterlimit="1" stroke-linejoin="round"/><polygon style="fill:#ff7b5e;stroke:#ff7b5e;" points="1255.2496185302734,660.7545623779297 1361.8545837402344,791.1039428710938 1363.3626708984375,644.9384765625" stroke-width="1" stroke-miterlimit="1" stroke-linejoin="round"/><polygon style="fill:#f35849;stroke:#f35849;" points="1488.7138977050781,492.4040894508362 1255.2496185302734,660.7545623779297 1363.3626708984375,644.9384765625" stroke-width="1" stroke-miterlimit="1" stroke-linejoin="round"/><polygon style="fill:#ff976f;stroke:#ff976f;" points="1206.7237091064453,504.3372311592102 1255.2496185302734,660.7545623779297 1488.7138977050781,492.4040894508362" stroke-width="1" stroke-miterlimit="1" stroke-linejoin="round"/><polygon style="fill:#ffad7c;stroke:#ffad7c;" points="1348.1591186523438,349.94544982910156 1206.7237091064453,504.3372311592102 1488.7138977050781,492.4040894508362" stroke-width="1" stroke-miterlimit="1" stroke-linejoin="round"/><polygon style="fill:#ffd594;stroke:#ffd594;" points="1234.9449157714844,346.1105651855469 1206.7237091064453,504.3372311592102 1348.1591186523438,349.94544982910156" stroke-width="1" stroke-miterlimit="1" stroke-linejoin="round"/><polygon style="fill:#ffac7b;stroke:#ffac7b;" points="1524.1121215820312,186.54281616210938 1234.9449157714844,346.1105651855469 1348.1591186523438,349.94544982910156" stroke-width="1" stroke-miterlimit="1" stroke-linejoin="round"/><polygon style="fill:#ffa376;stroke:#ffa376;" points="1397.63818359375,189.73880004882812 1234.9449157714844,346.1105651855469 1524.1121215820312,186.54281616210938" stroke-width="1" stroke-miterlimit="1" stroke-linejoin="round"/><polygon style="fill:#ff8966;stroke:#ff8966;" points="1384.3431396484375,49.697540283203125 1397.63818359375,189.73880004882812 1524.1121215820312,186.54281616210938" stroke-width="1" stroke-miterlimit="1" stroke-linejoin="round"/><polygon style="fill:#ffa074;stroke:#ffa074;" points="1202.7561950683594,36.446136474609375 1397.63818359375,189.73880004882812 1384.3431396484375,49.697540283203125" stroke-width="1" stroke-miterlimit="1" stroke-linejoin="round"/><polygon style="fill:#ff916b;stroke:#ff916b;" points="1386.0497436523438,-111.9326171875 1202.7561950683594,36.446136474609375 1384.3431396484375,49.697540283203125" stroke-width="1" stroke-miterlimit="1" stroke-linejoin="round"/><polygon style="fill:#ff8f6a;stroke:#ff8f6a;" points="1180.2877502441406,-109.74346923828125 1202.7561950683594,36.446136474609375 1386.0497436523438,-111.9326171875" stroke-width="1" stroke-miterlimit="1" stroke-linejoin="round"/><polygon style="fill:#fd5d4c;stroke:#fd5d4c;" points="1218.2324523925781,959.6744689941406 1225.8371124267578,1104.2595825195312 1372.0608520507812,1114.8193359375" stroke-width="1" stroke-miterlimit="1" stroke-linejoin="round"/><polygon style="fill:#ff6450;stroke:#ff6450;" points="1070.7768630981445,948.7287902832031 1225.8371124267578,1104.2595825195312 1218.2324523925781,959.6744689941406" stroke-width="1" stroke-miterlimit="1" stroke-linejoin="round"/><polygon style="fill:#ff926c;stroke:#ff926c;" points="1361.8545837402344,791.1039428710938 1070.7768630981445,948.7287902832031 1218.2324523925781,959.6744689941406" stroke-width="1" stroke-miterlimit="1" stroke-linejoin="round"/><polygon style="fill:#ef5648;stroke:#ef5648;" points="1269.9097900390625,792.56591796875 1070.7768630981445,948.7287902832031 1361.8545837402344,791.1039428710938" stroke-width="1" stroke-miterlimit="1" stroke-linejoin="round"/><polygon style="fill:#ff755b;stroke:#ff755b;" points="1255.2496185302734,660.7545623779297 1269.9097900390625,792.56591796875 1361.8545837402344,791.1039428710938" stroke-width="1" stroke-miterlimit="1" stroke-linejoin="round"/><polygon style="fill:#ff8765;stroke:#ff8765;" points="1126.3685913085938,658.9699859619141 1269.9097900390625,792.56591796875 1255.2496185302734,660.7545623779297" stroke-width="1" stroke-miterlimit="1" stroke-linejoin="round"/><polygon style="fill:#ff9d72;stroke:#ff9d72;" points="1206.7237091064453,504.3372311592102 1126.3685913085938,658.9699859619141 1255.2496185302734,660.7545623779297" stroke-width="1" stroke-miterlimit="1" stroke-linejoin="round"/><polygon style="fill:#ffeca2;stroke:#ffeca2;" points="1196.02490234375,512.706202507019 1126.3685913085938,658.9699859619141 1206.7237091064453,504.3372311592102" stroke-width="1" stroke-miterlimit="1" stroke-linejoin="round"/><polygon style="fill:#ffffb1;stroke:#ffffb1;" points="1234.9449157714844,346.1105651855469 1196.02490234375,512.706202507019 1206.7237091064453,504.3372311592102" stroke-width="1" stroke-miterlimit="1" stroke-linejoin="round"/><polygon style="fill:#a63232;stroke:#a63232;" points="1269.9966430664062,341.17041015625 1196.02490234375,512.706202507019 1234.9449157714844,346.1105651855469" stroke-width="1" stroke-miterlimit="1" stroke-linejoin="round"/><polygon style="fill:#a63232;stroke:#a63232;" points="1397.63818359375,189.73880004882812 1269.9966430664062,341.17041015625 1234.9449157714844,346.1105651855469" stroke-width="1" stroke-miterlimit="1" stroke-linejoin="round"/><polygon style="fill:#ffc289;stroke:#ffc289;" points="1155.823486328125,202.70376586914062 1269.9966430664062,341.17041015625 1397.63818359375,189.73880004882812" stroke-width="1" stroke-miterlimit="1" stroke-linejoin="round"/><polygon style="fill:#ffa678;stroke:#ffa678;" points="1202.7561950683594,36.446136474609375 1155.823486328125,202.70376586914062 1397.63818359375,189.73880004882812" stroke-width="1" stroke-miterlimit="1" stroke-linejoin="round"/><polygon style="fill:#a63232;stroke:#a63232;" points="1211.4015502929688,36.9290771484375 1155.823486328125,202.70376586914062 1202.7561950683594,36.446136474609375" stroke-width="1" stroke-miterlimit="1" stroke-linejoin="round"/><polygon style="fill:#a63232;stroke:#a63232;" points="1180.2877502441406,-109.74346923828125 1211.4015502929688,36.9290771484375 1202.7561950683594,36.446136474609375" stroke-width="1" stroke-miterlimit="1" stroke-linejoin="round"/><polygon style="fill:#a63232;stroke:#a63232;" points="1213.0435180664062,-85.96728515625 1211.4015502929688,36.9290771484375 1180.2877502441406,-109.74346923828125" stroke-width="1" stroke-miterlimit="1" stroke-linejoin="round"/><polygon style="fill:#ff6a54;stroke:#ff6a54;" points="1070.7768630981445,948.7287902832031 1002.3482925891876,1103.3115844726562 1225.8371124267578,1104.2595825195312" stroke-width="1" stroke-miterlimit="1" stroke-linejoin="round"/><polygon style="fill:#a63232;stroke:#a63232;" points="1073.942626953125,946.5068054199219 1002.3482925891876,1103.3115844726562 1070.7768630981445,948.7287902832031" stroke-width="1" stroke-miterlimit="1" stroke-linejoin="round"/><polygon style="fill:#ff8765;stroke:#ff8765;" points="1269.9097900390625,792.56591796875 1073.942626953125,946.5068054199219 1070.7768630981445,948.7287902832031" stroke-width="1" stroke-miterlimit="1" stroke-linejoin="round"/><polygon style="fill:#ff6852;stroke:#ff6852;" points="973.3135871887207,790.2967529296875 1073.942626953125,946.5068054199219 1269.9097900390625,792.56591796875" stroke-width="1" stroke-miterlimit="1" stroke-linejoin="round"/><polygon style="fill:#ff8d69;stroke:#ff8d69;" points="1126.3685913085938,658.9699859619141 973.3135871887207,790.2967529296875 1269.9097900390625,792.56591796875" stroke-width="1" stroke-miterlimit="1" stroke-linejoin="round"/><polygon style="fill:#ff926c;stroke:#ff926c;" points="949.4677391052246,641.4824829101562 973.3135871887207,790.2967529296875 1126.3685913085938,658.9699859619141" stroke-width="1" stroke-miterlimit="1" stroke-linejoin="round"/><polygon style="fill:#ffae7d;stroke:#ffae7d;" points="1196.02490234375,512.706202507019 949.4677391052246,641.4824829101562 1126.3685913085938,658.9699859619141" stroke-width="1" stroke-miterlimit="1" stroke-linejoin="round"/><polygon style="fill:#ffbf87;stroke:#ffbf87;" points="1009.2357091903687,494.07513427734375 949.4677391052246,641.4824829101562 1196.02490234375,512.706202507019" stroke-width="1" stroke-miterlimit="1" stroke-linejoin="round"/><polygon style="fill:#ffdc98;stroke:#ffdc98;" points="1269.9966430664062,341.17041015625 1009.2357091903687,494.07513427734375 1196.02490234375,512.706202507019" stroke-width="1" stroke-miterlimit="1" stroke-linejoin="round"/><polygon style="fill:#ffffb5;stroke:#ffffb5;" points="1057.7217903137207,362.73095703125 1009.2357091903687,494.07513427734375 1269.9966430664062,341.17041015625" stroke-width="1" stroke-miterlimit="1" stroke-linejoin="round"/><polygon style="fill:#ffffb2;stroke:#ffffb2;" points="1155.823486328125,202.70376586914062 1057.7217903137207,362.73095703125 1269.9966430664062,341.17041015625" stroke-width="1" stroke-miterlimit="1" stroke-linejoin="round"/><polygon style="fill:#ffffb7;stroke:#ffffb7;" points="1058.984001159668,212.1300048828125 1057.7217903137207,362.73095703125 1155.823486328125,202.70376586914062" stroke-width="1" stroke-miterlimit="1" stroke-linejoin="round"/><polygon style="fill:#ffc288;stroke:#ffc288;" points="1211.4015502929688,36.9290771484375 1058.984001159668,212.1300048828125 1155.823486328125,202.70376586914062" stroke-width="1" stroke-miterlimit="1" stroke-linejoin="round"/><polygon style="fill:#ffb580;stroke:#ffb580;" points="1026.5251960754395,55.106781005859375 1058.984001159668,212.1300048828125 1211.4015502929688,36.9290771484375" stroke-width="1" stroke-miterlimit="1" stroke-linejoin="round"/><polygon style="fill:#ffa477;stroke:#ffa477;" points="1213.0435180664062,-85.96728515625 1026.5251960754395,55.106781005859375 1211.4015502929688,36.9290771484375" stroke-width="1" stroke-miterlimit="1" stroke-linejoin="round"/><polygon style="fill:#ff966e;stroke:#ff966e;" points="924.2959365844727,-114.86334228515625 1026.5251960754395,55.106781005859375 1213.0435180664062,-85.96728515625" stroke-width="1" stroke-miterlimit="1" stroke-linejoin="round"/><polygon style="fill:#ff6752;stroke:#ff6752;" points="1073.942626953125,946.5068054199219 730.5111389160156,1113.9724731445312 1002.3482925891876,1103.3115844726562" stroke-width="1" stroke-miterlimit="1" stroke-linejoin="round"/><polygon style="fill:#fe5e4c;stroke:#fe5e4c;" points="962.3468933105469,937.7570190429688 730.5111389160156,1113.9724731445312 1073.942626953125,946.5068054199219" stroke-width="1" stroke-miterlimit="1" stroke-linejoin="round"/><polygon style="fill:#ff624f;stroke:#ff624f;" points="973.3135871887207,790.2967529296875 962.3468933105469,937.7570190429688 1073.942626953125,946.5068054199219" stroke-width="1" stroke-miterlimit="1" stroke-linejoin="round"/><polygon style="fill:#ff634f;stroke:#ff634f;" points="757.8752136230469,812.3501281738281 962.3468933105469,937.7570190429688 973.3135871887207,790.2967529296875" stroke-width="1" stroke-miterlimit="1" stroke-linejoin="round"/><polygon style="fill:#ff7e5f;stroke:#ff7e5f;" points="949.4677391052246,641.4824829101562 757.8752136230469,812.3501281738281 973.3135871887207,790.2967529296875" stroke-width="1" stroke-miterlimit="1" stroke-linejoin="round"/><polygon style="fill:#ff8463;stroke:#ff8463;" points="786.2005615234375,655.0469207763672 757.8752136230469,812.3501281738281 949.4677391052246,641.4824829101562" stroke-width="1" stroke-miterlimit="1" stroke-linejoin="round"/><polygon style="fill:#ff9c72;stroke:#ff9c72;" points="1009.2357091903687,494.07513427734375 786.2005615234375,655.0469207763672 949.4677391052246,641.4824829101562" stroke-width="1" stroke-miterlimit="1" stroke-linejoin="round"/><polygon style="fill:#ff936c;stroke:#ff936c;" points="776.3576965332031,508.2845335006714 786.2005615234375,655.0469207763672 1009.2357091903687,494.07513427734375" stroke-width="1" stroke-miterlimit="1" stroke-linejoin="round"/><polygon style="fill:#ffcd8f;stroke:#ffcd8f;" points="1057.7217903137207,362.73095703125 776.3576965332031,508.2845335006714 1009.2357091903687,494.07513427734375" stroke-width="1" stroke-miterlimit="1" stroke-linejoin="round"/><polygon style="fill:#ffd292;stroke:#ffd292;" points="965.4005432128906,364.8609619140625 776.3576965332031,508.2845335006714 1057.7217903137207,362.73095703125" stroke-width="1" stroke-miterlimit="1" stroke-linejoin="round"/><polygon style="fill:#ffffb3;stroke:#ffffb3;" points="1058.984001159668,212.1300048828125 965.4005432128906,364.8609619140625 1057.7217903137207,362.73095703125" stroke-width="1" stroke-miterlimit="1" stroke-linejoin="round"/><polygon style="fill:#ffd292;stroke:#ffd292;" points="783.3958740234375,185.05010986328125 965.4005432128906,364.8609619140625 1058.984001159668,212.1300048828125" stroke-width="1" stroke-miterlimit="1" stroke-linejoin="round"/><polygon style="fill:#ffb682;stroke:#ffb682;" points="1026.5251960754395,55.106781005859375 783.3958740234375,185.05010986328125 1058.984001159668,212.1300048828125" stroke-width="1" stroke-miterlimit="1" stroke-linejoin="round"/><polygon style="fill:#ffb37f;stroke:#ffb37f;" points="869.3367004394531,37.46014404296875 783.3958740234375,185.05010986328125 1026.5251960754395,55.106781005859375" stroke-width="1" stroke-miterlimit="1" stroke-linejoin="round"/><polygon style="fill:#ff956e;stroke:#ff956e;" points="924.2959365844727,-114.86334228515625 869.3367004394531,37.46014404296875 1026.5251960754395,55.106781005859375" stroke-width="1" stroke-miterlimit="1" stroke-linejoin="round"/><polygon style="fill:#ff8162;stroke:#ff8162;" points="730.3531188964844,-97.42901611328125 869.3367004394531,37.46014404296875 924.2959365844727,-114.86334228515625" stroke-width="1" stroke-miterlimit="1" stroke-linejoin="round"/><polygon style="fill:#f35849;stroke:#f35849;" points="962.3468933105469,937.7570190429688 683.2337646484375,1085.1756591796875 730.5111389160156,1113.9724731445312" stroke-width="1" stroke-miterlimit="1" stroke-linejoin="round"/><polygon style="fill:#d64a40;stroke:#d64a40;" points="816.1924133300781,962.9102478027344 683.2337646484375,1085.1756591796875 962.3468933105469,937.7570190429688" stroke-width="1" stroke-miterlimit="1" stroke-linejoin="round"/><polygon style="fill:#ff6f57;stroke:#ff6f57;" points="757.8752136230469,812.3501281738281 816.1924133300781,962.9102478027344 962.3468933105469,937.7570190429688" stroke-width="1" stroke-miterlimit="1" stroke-linejoin="round"/><polygon style="fill:#a63232;stroke:#a63232;" points="719.0162048339844,801.4934692382812 816.1924133300781,962.9102478027344 757.8752136230469,812.3501281738281" stroke-width="1" stroke-miterlimit="1" stroke-linejoin="round"/><polygon style="fill:#f75a4a;stroke:#f75a4a;" points="786.2005615234375,655.0469207763672 719.0162048339844,801.4934692382812 757.8752136230469,812.3501281738281" stroke-width="1" stroke-miterlimit="1" stroke-linejoin="round"/><polygon style="fill:#ff6d55;stroke:#ff6d55;" points="757.6055450439453,639.6803894042969 719.0162048339844,801.4934692382812 786.2005615234375,655.0469207763672" stroke-width="1" stroke-miterlimit="1" stroke-linejoin="round"/><polygon style="fill:#fa5b4b;stroke:#fa5b4b;" points="776.3576965332031,508.2845335006714 757.6055450439453,639.6803894042969 786.2005615234375,655.0469207763672" stroke-width="1" stroke-miterlimit="1" stroke-linejoin="round"/><polygon style="fill:#fb5c4b;stroke:#fb5c4b;" points="698.573974609375,485.1476306915283 757.6055450439453,639.6803894042969 776.3576965332031,508.2845335006714" stroke-width="1" stroke-miterlimit="1" stroke-linejoin="round"/><polygon style="fill:#ff9c72;stroke:#ff9c72;" points="965.4005432128906,364.8609619140625 698.573974609375,485.1476306915283 776.3576965332031,508.2845335006714" stroke-width="1" stroke-miterlimit="1" stroke-linejoin="round"/><polygon style="fill:#ffa678;stroke:#ffa678;" points="782.6227416992188,364.45973205566406 698.573974609375,485.1476306915283 965.4005432128906,364.8609619140625" stroke-width="1" stroke-miterlimit="1" stroke-linejoin="round"/><polygon style="fill:#ffbf87;stroke:#ffbf87;" points="783.3958740234375,185.05010986328125 782.6227416992188,364.45973205566406 965.4005432128906,364.8609619140625" stroke-width="1" stroke-miterlimit="1" stroke-linejoin="round"/><polygon style="fill:#ff966e;stroke:#ff966e;" points="602.1895751953125,191.52645874023438 782.6227416992188,364.45973205566406 783.3958740234375,185.05010986328125" stroke-width="1" stroke-miterlimit="1" stroke-linejoin="round"/><polygon style="fill:#ffa175;stroke:#ffa175;" points="869.3367004394531,37.46014404296875 602.1895751953125,191.52645874023438 783.3958740234375,185.05010986328125" stroke-width="1" stroke-miterlimit="1" stroke-linejoin="round"/><polygon style="fill:#ff775c;stroke:#ff775c;" points="617.4256591796875,64.99688720703125 602.1895751953125,191.52645874023438 869.3367004394531,37.46014404296875" stroke-width="1" stroke-miterlimit="1" stroke-linejoin="round"/><polygon style="fill:#ff7f60;stroke:#ff7f60;" points="730.3531188964844,-97.42901611328125 617.4256591796875,64.99688720703125 869.3367004394531,37.46014404296875" stroke-width="1" stroke-miterlimit="1" stroke-linejoin="round"/><polygon style="fill:#ffa074;stroke:#ffa074;" points="664.9837646484375,-89.21917724609375 617.4256591796875,64.99688720703125 730.3531188964844,-97.42901611328125" stroke-width="1" stroke-miterlimit="1" stroke-linejoin="round"/><polygon style="fill:#da4c41;stroke:#da4c41;" points="816.1924133300781,962.9102478027344 468.90618896484375,1090.078125 683.2337646484375,1085.1756591796875" stroke-width="1" stroke-miterlimit="1" stroke-linejoin="round"/><polygon style="fill:#ff7057;stroke:#ff7057;" points="659.8085632324219,954.2852478027344 468.90618896484375,1090.078125 816.1924133300781,962.9102478027344" stroke-width="1" stroke-miterlimit="1" stroke-linejoin="round"/><polygon style="fill:#ff6752;stroke:#ff6752;" points="719.0162048339844,801.4934692382812 659.8085632324219,954.2852478027344 816.1924133300781,962.9102478027344" stroke-width="1" stroke-miterlimit="1" stroke-linejoin="round"/><polygon style="fill:#ff6d55;stroke:#ff6d55;" points="594.4447326660156,789.5997009277344 659.8085632324219,954.2852478027344 719.0162048339844,801.4934692382812" stroke-width="1" stroke-miterlimit="1" stroke-linejoin="round"/><polygon style="fill:#ff755a;stroke:#ff755a;" points="757.6055450439453,639.6803894042969 594.4447326660156,789.5997009277344 719.0162048339844,801.4934692382812" stroke-width="1" stroke-miterlimit="1" stroke-linejoin="round"/><polygon style="fill:#ff755a;stroke:#ff755a;" points="547.2075500488281,638.1804351806641 594.4447326660156,789.5997009277344 757.6055450439453,639.6803894042969" stroke-width="1" stroke-miterlimit="1" stroke-linejoin="round"/><polygon style="fill:#ff8362;stroke:#ff8362;" points="698.573974609375,485.1476306915283 547.2075500488281,638.1804351806641 757.6055450439453,639.6803894042969" stroke-width="1" stroke-miterlimit="1" stroke-linejoin="round"/><polygon style="fill:#ff8362;stroke:#ff8362;" points="616.9523010253906,485.97199630737305 547.2075500488281,638.1804351806641 698.573974609375,485.1476306915283" stroke-width="1" stroke-miterlimit="1" stroke-linejoin="round"/><polygon style="fill:#ff8765;stroke:#ff8765;" points="782.6227416992188,364.45973205566406 616.9523010253906,485.97199630737305 698.573974609375,485.1476306915283" stroke-width="1" stroke-miterlimit="1" stroke-linejoin="round"/><polygon style="fill:#ff745a;stroke:#ff745a;" points="461.28131103515625,362.55775451660156 616.9523010253906,485.97199630737305 782.6227416992188,364.45973205566406" stroke-width="1" stroke-miterlimit="1" stroke-linejoin="round"/><polygon style="fill:#ff755a;stroke:#ff755a;" points="602.1895751953125,191.52645874023438 461.28131103515625,362.55775451660156 782.6227416992188,364.45973205566406" stroke-width="1" stroke-miterlimit="1" stroke-linejoin="round"/><polygon style="fill:#df4e43;stroke:#df4e43;" points="532.1858215332031,185.000732421875 461.28131103515625,362.55775451660156 602.1895751953125,191.52645874023438" stroke-width="1" stroke-miterlimit="1" stroke-linejoin="round"/><polygon style="fill:#e35044;stroke:#e35044;" points="617.4256591796875,64.99688720703125 532.1858215332031,185.000732421875 602.1895751953125,191.52645874023438" stroke-width="1" stroke-miterlimit="1" stroke-linejoin="round"/><polygon style="fill:#ff7e60;stroke:#ff7e60;" points="472.56365966796875,45.66021728515625 532.1858215332031,185.000732421875 617.4256591796875,64.99688720703125" stroke-width="1" stroke-miterlimit="1" stroke-linejoin="round"/><polygon style="fill:#ff8061;stroke:#ff8061;" points="664.9837646484375,-89.21917724609375 472.56365966796875,45.66021728515625 617.4256591796875,64.99688720703125" stroke-width="1" stroke-miterlimit="1" stroke-linejoin="round"/><polygon style="fill:#a63232;stroke:#a63232;" points="643.6729736328125,-85.11053466796875 472.56365966796875,45.66021728515625 664.9837646484375,-89.21917724609375" stroke-width="1" stroke-miterlimit="1" stroke-linejoin="round"/><polygon style="fill:#c13f3a;stroke:#c13f3a;" points="659.8085632324219,954.2852478027344 477.8485107421875,1094.099365234375 468.90618896484375,1090.078125" stroke-width="1" stroke-miterlimit="1" stroke-linejoin="round"/><polygon style="fill:#f75a4a;stroke:#f75a4a;" points="284.74493408203125,947.460693359375 477.8485107421875,1094.099365234375 659.8085632324219,954.2852478027344" stroke-width="1" stroke-miterlimit="1" stroke-linejoin="round"/><polygon style="fill:#ff5e4c;stroke:#ff5e4c;" points="594.4447326660156,789.5997009277344 284.74493408203125,947.460693359375 659.8085632324219,954.2852478027344" stroke-width="1" stroke-miterlimit="1" stroke-linejoin="round"/><polygon style="fill:#fc5c4b;stroke:#fc5c4b;" points="388.13775634765625,811.3840942382812 284.74493408203125,947.460693359375 594.4447326660156,789.5997009277344" stroke-width="1" stroke-miterlimit="1" stroke-linejoin="round"/><polygon style="fill:#ff624f;stroke:#ff624f;" points="547.2075500488281,638.1804351806641 388.13775634765625,811.3840942382812 594.4447326660156,789.5997009277344" stroke-width="1" stroke-miterlimit="1" stroke-linejoin="round"/><polygon style="fill:#ff604e;stroke:#ff604e;" points="415.53497314453125,649.254638671875 388.13775634765625,811.3840942382812 547.2075500488281,638.1804351806641" stroke-width="1" stroke-miterlimit="1" stroke-linejoin="round"/><polygon style="fill:#ff6c55;stroke:#ff6c55;" points="616.9523010253906,485.97199630737305 415.53497314453125,649.254638671875 547.2075500488281,638.1804351806641" stroke-width="1" stroke-miterlimit="1" stroke-linejoin="round"/><polygon style="fill:#ff6752;stroke:#ff6752;" points="280.1190185546875,485.1947240829468 415.53497314453125,649.254638671875 616.9523010253906,485.97199630737305" stroke-width="1" stroke-miterlimit="1" stroke-linejoin="round"/><polygon style="fill:#ff6752;stroke:#ff6752;" points="461.28131103515625,362.55775451660156 280.1190185546875,485.1947240829468 616.9523010253906,485.97199630737305" stroke-width="1" stroke-miterlimit="1" stroke-linejoin="round"/><polygon style="fill:#ff6752;stroke:#ff6752;" points="303.564208984375,337.212890625 280.1190185546875,485.1947240829468 461.28131103515625,362.55775451660156" stroke-width="1" stroke-miterlimit="1" stroke-linejoin="round"/><polygon style="fill:#ff7359;stroke:#ff7359;" points="532.1858215332031,185.000732421875 303.564208984375,337.212890625 461.28131103515625,362.55775451660156" stroke-width="1" stroke-miterlimit="1" stroke-linejoin="round"/><polygon style="fill:#ff6f57;stroke:#ff6f57;" points="299.29620361328125,189.55499267578125 303.564208984375,337.212890625 532.1858215332031,185.000732421875" stroke-width="1" stroke-miterlimit="1" stroke-linejoin="round"/><polygon style="fill:#ff755a;stroke:#ff755a;" points="472.56365966796875,45.66021728515625 299.29620361328125,189.55499267578125 532.1858215332031,185.000732421875" stroke-width="1" stroke-miterlimit="1" stroke-linejoin="round"/><polygon style="fill:#e14f44;stroke:#e14f44;" points="348.20025634765625,60.171417236328125 299.29620361328125,189.55499267578125 472.56365966796875,45.66021728515625" stroke-width="1" stroke-miterlimit="1" stroke-linejoin="round"/><polygon style="fill:#d1473f;stroke:#d1473f;" points="643.6729736328125,-85.11053466796875 348.20025634765625,60.171417236328125 472.56365966796875,45.66021728515625" stroke-width="1" stroke-miterlimit="1" stroke-linejoin="round"/><polygon style="fill:#ff745a;stroke:#ff745a;" points="465.7642822265625,-100.13690185546875 348.20025634765625,60.171417236328125 643.6729736328125,-85.11053466796875" stroke-width="1" stroke-miterlimit="1" stroke-linejoin="round"/><polygon style="fill:#fb5c4b;stroke:#fb5c4b;" points="284.74493408203125,947.460693359375 319.37139892578125,1113.8043212890625 477.8485107421875,1094.099365234375" stroke-width="1" stroke-miterlimit="1" stroke-linejoin="round"/><polygon style="fill:#a63232;stroke:#a63232;" points="366.559814453125,964.4326782226562 319.37139892578125,1113.8043212890625 284.74493408203125,947.460693359375" stroke-width="1" stroke-miterlimit="1" stroke-linejoin="round"/><polygon style="fill:#a63232;stroke:#a63232;" points="388.13775634765625,811.3840942382812 366.559814453125,964.4326782226562 284.74493408203125,947.460693359375" stroke-width="1" stroke-miterlimit="1" stroke-linejoin="round"/><polygon style="fill:#ff6f56;stroke:#ff6f56;" points="196.6827392578125,802.3074035644531 366.559814453125,964.4326782226562 388.13775634765625,811.3840942382812" stroke-width="1" stroke-miterlimit="1" stroke-linejoin="round"/><polygon style="fill:#ff6551;stroke:#ff6551;" points="415.53497314453125,649.254638671875 196.6827392578125,802.3074035644531 388.13775634765625,811.3840942382812" stroke-width="1" stroke-miterlimit="1" stroke-linejoin="round"/><polygon style="fill:#ff6551;stroke:#ff6551;" points="326.800537109375,646.9457855224609 196.6827392578125,802.3074035644531 415.53497314453125,649.254638671875" stroke-width="1" stroke-miterlimit="1" stroke-linejoin="round"/><polygon style="fill:#ff7459;stroke:#ff7459;" points="280.1190185546875,485.1947240829468 326.800537109375,646.9457855224609 415.53497314453125,649.254638671875" stroke-width="1" stroke-miterlimit="1" stroke-linejoin="round"/><polygon style="fill:#ff6953;stroke:#ff6953;" points="195.26666259765625,504.39156341552734 326.800537109375,646.9457855224609 280.1190185546875,485.1947240829468" stroke-width="1" stroke-miterlimit="1" stroke-linejoin="round"/><polygon style="fill:#ff6b54;stroke:#ff6b54;" points="303.564208984375,337.212890625 195.26666259765625,504.39156341552734 280.1190185546875,485.1947240829468" stroke-width="1" stroke-miterlimit="1" stroke-linejoin="round"/><polygon style="fill:#a63232;stroke:#a63232;" points="358.91668701171875,342.6304931640625 195.26666259765625,504.39156341552734 303.564208984375,337.212890625" stroke-width="1" stroke-miterlimit="1" stroke-linejoin="round"/><polygon style="fill:#a63232;stroke:#a63232;" points="299.29620361328125,189.55499267578125 358.91668701171875,342.6304931640625 303.564208984375,337.212890625" stroke-width="1" stroke-miterlimit="1" stroke-linejoin="round"/><polygon style="fill:#be3e39;stroke:#be3e39;" points="225.26092529296875,186.297119140625 358.91668701171875,342.6304931640625 299.29620361328125,189.55499267578125" stroke-width="1" stroke-miterlimit="1" stroke-linejoin="round"/><polygon style="fill:#b63a37;stroke:#b63a37;" points="348.20025634765625,60.171417236328125 225.26092529296875,186.297119140625 299.29620361328125,189.55499267578125" stroke-width="1" stroke-miterlimit="1" stroke-linejoin="round"/><polygon style="fill:#ff6450;stroke:#ff6450;" points="139.2470703125,64.66268920898438 225.26092529296875,186.297119140625 348.20025634765625,60.171417236328125" stroke-width="1" stroke-miterlimit="1" stroke-linejoin="round"/><polygon style="fill:#ff6651;stroke:#ff6651;" points="465.7642822265625,-100.13690185546875 139.2470703125,64.66268920898438 348.20025634765625,60.171417236328125" stroke-width="1" stroke-miterlimit="1" stroke-linejoin="round"/><polygon style="fill:#ff7a5d;stroke:#ff7a5d;" points="365.64483642578125,-99.68902587890625 139.2470703125,64.66268920898438 465.7642822265625,-100.13690185546875" stroke-width="1" stroke-miterlimit="1" stroke-linejoin="round"/><polygon style="fill:#ce463e;stroke:#ce463e;" points="366.559814453125,964.4326782226562 16.8818359375,1085.4996337890625 319.37139892578125,1113.8043212890625" stroke-width="1" stroke-miterlimit="1" stroke-linejoin="round"/><polygon style="fill:#d64a40;stroke:#d64a40;" points="-4.6021728515625,950.0599670410156 16.8818359375,1085.4996337890625 366.559814453125,964.4326782226562" stroke-width="1" stroke-miterlimit="1" stroke-linejoin="round"/><polygon style="fill:#d1473f;stroke:#d1473f;" points="196.6827392578125,802.3074035644531 -4.6021728515625,950.0599670410156 366.559814453125,964.4326782226562" stroke-width="1" stroke-miterlimit="1" stroke-linejoin="round"/><polygon style="fill:#b13735;stroke:#b13735;" points="184.63909912109375,787.0012817382812 -4.6021728515625,950.0599670410156 196.6827392578125,802.3074035644531" stroke-width="1" stroke-miterlimit="1" stroke-linejoin="round"/><polygon style="fill:#a83332;stroke:#a83332;" points="326.800537109375,646.9457855224609 184.63909912109375,787.0012817382812 196.6827392578125,802.3074035644531" stroke-width="1" stroke-miterlimit="1" stroke-linejoin="round"/><polygon style="fill:#e35044;stroke:#e35044;" points="-11.13873291015625,653.4735107421875 184.63909912109375,787.0012817382812 326.800537109375,646.9457855224609" stroke-width="1" stroke-miterlimit="1" stroke-linejoin="round"/><polygon style="fill:#ea5446;stroke:#ea5446;" points="195.26666259765625,504.39156341552734 -11.13873291015625,653.4735107421875 326.800537109375,646.9457855224609" stroke-width="1" stroke-miterlimit="1" stroke-linejoin="round"/><polygon style="fill:#ff604e;stroke:#ff604e;" points="187.7789306640625,512.0246953964233 -11.13873291015625,653.4735107421875 195.26666259765625,504.39156341552734" stroke-width="1" stroke-miterlimit="1" stroke-linejoin="round"/><polygon style="fill:#ffbc85;stroke:#ffbc85;" points="358.91668701171875,342.6304931640625 187.7789306640625,512.0246953964233 195.26666259765625,504.39156341552734" stroke-width="1" stroke-miterlimit="1" stroke-linejoin="round"/><polygon style="fill:#e04f43;stroke:#e04f43;" points="94.4991455078125,339.1549377441406 187.7789306640625,512.0246953964233 358.91668701171875,342.6304931640625" stroke-width="1" stroke-miterlimit="1" stroke-linejoin="round"/><polygon style="fill:#e25044;stroke:#e25044;" points="225.26092529296875,186.297119140625 94.4991455078125,339.1549377441406 358.91668701171875,342.6304931640625" stroke-width="1" stroke-miterlimit="1" stroke-linejoin="round"/><polygon style="fill:#fffbab;stroke:#fffbab;" points="218.44683837890625,191.52972412109375 94.4991455078125,339.1549377441406 225.26092529296875,186.297119140625" stroke-width="1" stroke-miterlimit="1" stroke-linejoin="round"/><polygon style="fill:#ffbd86;stroke:#ffbd86;" points="139.2470703125,64.66268920898438 218.44683837890625,191.52972412109375 225.26092529296875,186.297119140625" stroke-width="1" stroke-miterlimit="1" stroke-linejoin="round"/><polygon style="fill:#a63232;stroke:#a63232;" points="113.74853515625,38.58453369140625 218.44683837890625,191.52972412109375 139.2470703125,64.66268920898438" stroke-width="1" stroke-miterlimit="1" stroke-linejoin="round"/><polygon style="fill:#be3e39;stroke:#be3e39;" points="365.64483642578125,-99.68902587890625 113.74853515625,38.58453369140625 139.2470703125,64.66268920898438" stroke-width="1" stroke-miterlimit="1" stroke-linejoin="round"/><polygon style="fill:#f15748;stroke:#f15748;" points="87.6417236328125,-85.00146484375 113.74853515625,38.58453369140625 365.64483642578125,-99.68902587890625" stroke-width="1" stroke-miterlimit="1" stroke-linejoin="round"/><polygon style="fill:#fa5c4b;stroke:#fa5c4b;" points="-4.6021728515625,950.0599670410156 -28.2025146484375,1085.793212890625 16.8818359375,1085.4996337890625" stroke-width="1" stroke-miterlimit="1" stroke-linejoin="round"/><polygon style="fill:#a63232;stroke:#a63232;" points="68.021728515625,941.6929931640625 -28.2025146484375,1085.793212890625 -4.6021728515625,950.0599670410156" stroke-width="1" stroke-miterlimit="1" stroke-linejoin="round"/><polygon style="fill:#a63232;stroke:#a63232;" points="184.63909912109375,787.0012817382812 68.021728515625,941.6929931640625 -4.6021728515625,950.0599670410156" stroke-width="1" stroke-miterlimit="1" stroke-linejoin="round"/><polygon style="fill:#e85245;stroke:#e85245;" points="68.25665283203125,798.4088745117188 68.021728515625,941.6929931640625 184.63909912109375,787.0012817382812" stroke-width="1" stroke-miterlimit="1" stroke-linejoin="round"/><polygon style="fill:#d94b41;stroke:#d94b41;" points="-11.13873291015625,653.4735107421875 68.25665283203125,798.4088745117188 184.63909912109375,787.0012817382812" stroke-width="1" stroke-miterlimit="1" stroke-linejoin="round"/><polygon style="fill:#ff7b5e;stroke:#ff7b5e;" points="-94.4068603515625,660.0769653320312 68.25665283203125,798.4088745117188 -11.13873291015625,653.4735107421875" stroke-width="1" stroke-miterlimit="1" stroke-linejoin="round"/><polygon style="fill:#ff6953;stroke:#ff6953;" points="187.7789306640625,512.0246953964233 -94.4068603515625,660.0769653320312 -11.13873291015625,653.4735107421875" stroke-width="1" stroke-miterlimit="1" stroke-linejoin="round"/><polygon style="fill:#fc5d4c;stroke:#fc5d4c;" points="69.41656494140625,498.26994371414185 -94.4068603515625,660.0769653320312 187.7789306640625,512.0246953964233" stroke-width="1" stroke-miterlimit="1" stroke-linejoin="round"/><polygon style="fill:#ff6651;stroke:#ff6651;" points="94.4991455078125,339.1549377441406 69.41656494140625,498.26994371414185 187.7789306640625,512.0246953964233" stroke-width="1" stroke-miterlimit="1" stroke-linejoin="round"/><polygon style="fill:#ff6450;stroke:#ff6450;" points="-49.3804931640625,335.1952362060547 69.41656494140625,498.26994371414185 94.4991455078125,339.1549377441406" stroke-width="1" stroke-miterlimit="1" stroke-linejoin="round"/><polygon style="fill:#ff6550;stroke:#ff6550;" points="218.44683837890625,191.52972412109375 -49.3804931640625,335.1952362060547 94.4991455078125,339.1549377441406" stroke-width="1" stroke-miterlimit="1" stroke-linejoin="round"/><polygon style="fill:#f55949;stroke:#f55949;" points="69.69720458984375,186.05859375 -49.3804931640625,335.1952362060547 218.44683837890625,191.52972412109375" stroke-width="1" stroke-miterlimit="1" stroke-linejoin="round"/><polygon style="fill:#f75a4a;stroke:#f75a4a;" points="113.74853515625,38.58453369140625 69.69720458984375,186.05859375 218.44683837890625,191.52972412109375" stroke-width="1" stroke-miterlimit="1" stroke-linejoin="round"/><polygon style="fill:#db4c42;stroke:#db4c42;" points="26.71575927734375,35.043792724609375 69.69720458984375,186.05859375 113.74853515625,38.58453369140625" stroke-width="1" stroke-miterlimit="1" stroke-linejoin="round"/><polygon style="fill:#e45144;stroke:#e45144;" points="87.6417236328125,-85.00146484375 26.71575927734375,35.043792724609375 113.74853515625,38.58453369140625" stroke-width="1" stroke-miterlimit="1" stroke-linejoin="round"/><polygon style="fill:#de4e42;stroke:#de4e42;" points="-119.8646240234375,-93.709228515625 26.71575927734375,35.043792724609375 87.6417236328125,-85.00146484375" stroke-width="1" stroke-miterlimit="1" stroke-linejoin="round"/><polygon style="fill:#c9433c;stroke:#c9433c;" points="68.021728515625,941.6929931640625 -84.7705078125,1086.42236328125 -28.2025146484375,1085.793212890625" stroke-width="1" stroke-miterlimit="1" stroke-linejoin="round"/><polygon style="fill:#cb443d;stroke:#cb443d;" points="-310.1468505859375,957.6862182617188 -84.7705078125,1086.42236328125 68.021728515625,941.6929931640625" stroke-width="1" stroke-miterlimit="1" stroke-linejoin="round"/><polygon style="fill:#e65145;stroke:#e65145;" points="68.25665283203125,798.4088745117188 -310.1468505859375,957.6862182617188 68.021728515625,941.6929931640625" stroke-width="1" stroke-miterlimit="1" stroke-linejoin="round"/><polygon style="fill:#df4e43;stroke:#df4e43;" points="-231.91845703125,787.8565673828125 -310.1468505859375,957.6862182617188 68.25665283203125,798.4088745117188" stroke-width="1" stroke-miterlimit="1" stroke-linejoin="round"/><polygon style="fill:#ee5647;stroke:#ee5647;" points="-94.4068603515625,660.0769653320312 -231.91845703125,787.8565673828125 68.25665283203125,798.4088745117188" stroke-width="1" stroke-miterlimit="1" stroke-linejoin="round"/><polygon style="fill:#cc453d;stroke:#cc453d;" points="-158.5751953125,635.8269653320312 -231.91845703125,787.8565673828125 -94.4068603515625,660.0769653320312" stroke-width="1" stroke-miterlimit="1" stroke-linejoin="round"/><polygon style="fill:#d3483f;stroke:#d3483f;" points="69.41656494140625,498.26994371414185 -158.5751953125,635.8269653320312 -94.4068603515625,660.0769653320312" stroke-width="1" stroke-miterlimit="1" stroke-linejoin="round"/><polygon style="fill:#de4e43;stroke:#de4e43;" points="-168.2611083984375,514.7129230499268 -158.5751953125,635.8269653320312 69.41656494140625,498.26994371414185" stroke-width="1" stroke-miterlimit="1" stroke-linejoin="round"/><polygon style="fill:#e04f43;stroke:#e04f43;" points="-49.3804931640625,335.1952362060547 -168.2611083984375,514.7129230499268 69.41656494140625,498.26994371414185" stroke-width="1" stroke-miterlimit="1" stroke-linejoin="round"/><polygon style="fill:#a63232;stroke:#a63232;" points="-88.38525390625,344.8657684326172 -168.2611083984375,514.7129230499268 -49.3804931640625,335.1952362060547" stroke-width="1" stroke-miterlimit="1" stroke-linejoin="round"/><polygon style="fill:#a63232;stroke:#a63232;" points="69.69720458984375,186.05859375 -88.38525390625,344.8657684326172 -49.3804931640625,335.1952362060547" stroke-width="1" stroke-miterlimit="1" stroke-linejoin="round"/><polygon style="fill:#e95346;stroke:#e95346;" points="-267.4453125,212.88632202148438 -88.38525390625,344.8657684326172 69.69720458984375,186.05859375" stroke-width="1" stroke-miterlimit="1" stroke-linejoin="round"/><polygon style="fill:#e14f44;stroke:#e14f44;" points="26.71575927734375,35.043792724609375 -267.4453125,212.88632202148438 69.69720458984375,186.05859375" stroke-width="1" stroke-miterlimit="1" stroke-linejoin="round"/><polygon style="fill:#ed5547;stroke:#ed5547;" points="-84.577392578125,36.735107421875 -267.4453125,212.88632202148438 26.71575927734375,35.043792724609375" stroke-width="1" stroke-miterlimit="1" stroke-linejoin="round"/><polygon style="fill:#ed5547;stroke:#ed5547;" points="-119.8646240234375,-93.709228515625 -84.577392578125,36.735107421875 26.71575927734375,35.043792724609375" stroke-width="1" stroke-miterlimit="1" stroke-linejoin="round"/><polygon style="fill:#ffaf7d;stroke:#ffaf7d;" points="-151.7452392578125,-113.108642578125 -84.577392578125,36.735107421875 -119.8646240234375,-93.709228515625" stroke-width="1" stroke-miterlimit="1" stroke-linejoin="round"/></svg>