<?xml version="1.0" encoding="utf-8"?>
<!-- Generator: Adobe Illustrator 17.1.0, SVG Export Plug-In . SVG Version: 6.00 Build 0)  -->
<!DOCTYPE svg PUBLIC "-//W3C//DTD SVG 1.1//EN" "http://www.w3.org/Graphics/SVG/1.1/DTD/svg11.dtd">
<svg version="1.1" id="Layer_1" xmlns="http://www.w3.org/2000/svg" xmlns:xlink="http://www.w3.org/1999/xlink" x="0px" y="0px"
	 viewBox="0 0 4096 3112" enable-background="new 0 0 4096 3112" xml:space="preserve">
<g>
	<defs>
		<rect id="SVGID_1_" x="608" y="656" width="2880" height="1801"/>
	</defs>
	<clipPath id="SVGID_2_">
		<use xlink:href="#SVGID_1_"  overflow="visible"/>
	</clipPath>
	<g clip-path="url(#SVGID_2_)">
		<circle opacity="0.84" fill="#0A2F4A" cx="1263.888" cy="1616.014" r="2883.549"/>
		<circle fill="#FFFFFF" cx="1263.888" cy="1616.014" r="2318.212"/>
		<circle opacity="0.84" fill="#F8CF4A" cx="1263.888" cy="1616.014" r="2318.212"/>
		<circle opacity="0.7" fill="#F8A14A" cx="1263.888" cy="1616.014" r="1237.444"/>
		<circle opacity="0.64" fill="#F87B4A" cx="1263.888" cy="1616.014" r="829.477"/>
		<g>
			<path fill="#F84A4A" d="M1511.678,1178.999c0,0,251.782,111.946,263.264,425.366c11.368,310.311-289.32,468.645-289.32,468.645
				s-32.794,146.301-116.983,303.698c-84.189,157.397-263.548,340.417-263.548,340.417s109.812-285.511,157.397-461.209
				s59.939-447.025,59.939-447.025L1511.678,1178.999z"/>
			<path fill="#F8CF4A" d="M1362.233,934.971c0,0,101.414-15.099,211.388,62.684c115.065,81.384,89.126,253.278,89.126,253.278
				s-54.132-64.561-136.21-107.079s-162.931-42.48-162.931-42.48"/>
			<path display="none" fill="#F8A14A" d="M1478.065,1118.22c0,0,58.643,34.849,78.29,70.459
				c19.647,35.61,27.408,88.198,27.408,88.198s-74.904-46.661-89.639-52.801c-14.735-6.14-31.875-4.511-31.875-4.511
				L1478.065,1118.22z"/>
			<path fill="#2F6F99" d="M1631.547,1266.611c-52.199-55.526-112.185-82.743-112.185-82.743
				c25.163-43.925,32.297-75.321,32.297-122.696c0-123.316-99.967-228.047-223.284-228.047
				c-123.316,0-223.283,97.587-223.283,220.903c0,10.205,0.924,18.981,2.249,28.823c0,0,12.689,52.156,22.769,71.625
				c29.013,89.558,72.606,240.91,70.151,336.621c-3.661,142.755-69.548,340.315-69.548,340.315s58.567-36.655,91.51-73.258
				c32.943-36.604,47.585-76.894,47.585-76.894s-10.981,106.138-54.906,168.365c-43.925,62.228-109.812,131.768-109.812,131.768
				s110.843-47.28,164.718-109.815c53.875-62.533,53.875-62.535,53.875-62.535s-51.246,117.438-109.297,172.344
				c-58.051,54.906-156.881,109.811-156.881,109.811s322.115-29.283,475.851-325.775s34.313-466.713,34.313-466.713
				L1631.547,1266.611z"/>
			<circle fill="#F8CF4A" cx="1380.446" cy="1018.173" r="83.201"/>
			
				<line display="none" fill="none" stroke="#000000" stroke-miterlimit="10" x1="2653.29" y1="727.993" x2="1182.229" y2="1467.207"/>
		</g>
	</g>
</g>
<text transform="matrix(1 0 0 1 1578.0282 2016.3877)" display="none" fill="#FFFFFF" font-family="'AvenirNextLTPro-UltLt'" font-size="287.624">squawk</text>
</svg>
